<svg xmlns="http://www.w3.org/2000/svg" viewBox="0 0 553.12 79.09"><defs><style>.cls-1{fill:#004712;}.cls-2{fill:#a39161;}</style></defs><title>Asset 1</title><g id="Layer_2" data-name="Layer 2"><g id="Layer_1-2" data-name="Layer 1"><path class="cls-1" d="M159.85.67l-3.74,6.76c-5-2-7-2.15-13.07-2.34V21.42h15.21l-3.49,6.63c-3.19-1.35-6-2.15-11.72-2.09V36.27a35.14,35.14,0,0,0,1.41,10.43h-9.82a53,53,0,0,0,1.53-12.88V12.21c0-6.56-.8-9.08-1.53-11.54h25.22"/><path class="cls-1" d="M168.32,14.54A19.3,19.3,0,0,0,168,19v3.93c1.91-3.68,4.11-8.16,9.39-8.16a5.56,5.56,0,0,1,2.95.8l-1,7.73c-1.66-1.53-2.52-2.33-4.91-2.33A8.59,8.59,0,0,0,168,23.75V39.16c0,4.66.49,5.7,1.6,7.54h-9.39c1.29-2,1.59-3.06,1.59-6.13V20.13a14.94,14.94,0,0,0-1-5.59h7.55"/><path class="cls-1" d="M194,32.65h-8.22a11.48,11.48,0,0,0-1.17,4.85c0,3.56,2.89,4.72,6.08,4.72a10,10,0,0,0,3.31-.55v-9ZM182.86,15.77l4-.86a14.33,14.33,0,0,1,2.83-.24c5.95,0,8.47,3.37,9.14,4.54.92,1.66.92,2.52.92,4.66l.25,18.35a22.86,22.86,0,0,0,1.16,4.48H194V42.22c-2.33,1.72-3,2.28-5.28,4.18a16.47,16.47,0,0,1-2.57.3c-2.52,0-8.1-2.2-8.1-7.42,0-5.53,7.11-8.66,11.29-10.31A15,15,0,0,0,194,26.64V25a5.16,5.16,0,0,0-.37-2.58c-.85-1.59-3.43-3.07-6.38-3.07-2.39,0-4.11.92-6.07,2.09l1.71-5.65"/><path class="cls-1" d="M215.51,15.71a10.18,10.18,0,0,1,4.91-1.47,8.32,8.32,0,0,1,8.1,8.41V41.18a10.88,10.88,0,0,0,1.17,5.52h-8.22a12.31,12.31,0,0,0,1-5.34V23.63c0-1.11-1.11-4.17-5.83-4.17a8.58,8.58,0,0,0-5.71,1.84V39.59a35.22,35.22,0,0,0,.55,7.11H203.3a24.27,24.27,0,0,0,1.6-9.82V19.64a49,49,0,0,0-.86-5.16H211l-.06,6.26,4.6-5"/><path class="cls-1" d="M241.1,0a41.49,41.49,0,0,0-1.22,10.25v19l8-10.49c1.65-2.15,1.71-3.07,1.84-4.24H259c-4.54,4.12-5,4.55-7.42,7.68l-4.85,6.25,5.65,9.52A42.59,42.59,0,0,0,259,46.7h-9.87A11.83,11.83,0,0,0,247,41l-7.12-11.79V39.4c0,2.15.24,5.4,1.22,7.3h-8.83c1.35-2.51,1.59-4.48,1.59-8.77V8.84a23.14,23.14,0,0,0-1.16-7.18L241.1,0"/><path class="cls-1" d="M269.89.37a55.73,55.73,0,0,0-1.11,10.43V37.19c0,4.54.31,5.83,2,9.51H260.31c.68-1.22,2.34-4.29,2.34-7.3l.06-30.13a19.88,19.88,0,0,0-1.35-7.18L269.89.37"/><path class="cls-1" d="M283.27,5.59a4.5,4.5,0,0,1-4.36,4.6,4.39,4.39,0,0,1-4.36-4.73,4.32,4.32,0,0,1,4.24-4.6,4.71,4.71,0,0,1,4.48,4.73Zm.12,8.89c-.8,1.54-1.54,2.89-1.54,8V37.81c0,5.83,1,7.48,1.85,8.89h-9.88c1.41-2.14,1.9-2.94,1.9-9.26V22.59c0-4.12-.43-5.59-1.66-8.11h9.33"/><path class="cls-1" d="M299.1,15.71A10.14,10.14,0,0,1,304,14.24a8.33,8.33,0,0,1,8.1,8.41V41.18a10.88,10.88,0,0,0,1.17,5.52h-8.23a12.2,12.2,0,0,0,1-5.34V23.63c0-1.11-1.11-4.17-5.84-4.17a8.57,8.57,0,0,0-5.7,1.84V39.59a35.22,35.22,0,0,0,.55,7.11h-8.16a24.26,24.26,0,0,0,1.59-9.82V19.64a46.56,46.56,0,0,0-.86-5.16h6.94l-.06,6.26,4.6-5"/><path class="cls-1" d="M345.74,27h11.17l-5.34-12.33L345.74,27Zm21.91,7.12a61.78,61.78,0,0,0,7.18,12.46l-10.92.12A18.53,18.53,0,0,0,362,38.6l-2.7-6.2H343.16l-2.33,5c-.8,1.71-2.58,5.7-2.33,9.32H327.27c1.53-1.78,2.88-3.43,6.69-11L351.69.49h.37l15.59,33.63"/><path class="cls-1" d="M383.85,14.48v7.06c.43-.67,2.27-3.8,2.76-4.42a8.1,8.1,0,0,1,6.08-2.76c6.07,0,7.36,5.46,7.73,7.18.37-.67,2-3.87,2.46-4.48a7.62,7.62,0,0,1,6.2-2.7,7.41,7.41,0,0,1,6.93,4,9.93,9.93,0,0,1,.86,4.91V41.92a8.74,8.74,0,0,0,1,4.78h-8c.92-2,.92-2.2.92-4.78V23.69a4.81,4.81,0,0,0-4.91-4.6c-2.82,0-4.42,2-5.46,3.31v19a9.73,9.73,0,0,0,1.11,5.27H393c.92-1.53,1.22-2.2,1.22-5.27V25.53c0-1.9,0-3.25-.79-4.36a4.65,4.65,0,0,0-3.69-2.08c-2.39,0-4.05,1.47-5.89,3.25v19a8,8,0,0,0,1.35,5.34h-8.71a9.14,9.14,0,0,0,1.28-5.09V21a14.37,14.37,0,0,0-1.28-6.51h7.36"/><path class="cls-1" d="M438.9,27.62c.18-5.83-2-9.15-6.38-9.15-4.6,0-6.26,3.69-6.75,9.15Zm.31,17.67a20.2,20.2,0,0,1-7.12,1.41c-10.25,0-12.83-8.28-12.83-15.52,0-10.68,5.34-16.57,12.89-16.57,5.28,0,9.45,3.19,10.37,9.33a38.43,38.43,0,0,1,.37,7.42L426,31.73c.19,2.21.74,9.7,7.86,9.7,2.57,0,4.78-.86,8.4-2.52l-3,6.38"/><path class="cls-1" d="M450.81,14.54A19.3,19.3,0,0,0,450.5,19v3.93c1.9-3.68,4.11-8.16,9.39-8.16a5.58,5.58,0,0,1,2.95.8l-1,7.73c-1.65-1.53-2.51-2.33-4.91-2.33a8.58,8.58,0,0,0-6.38,2.82V39.16c0,4.66.49,5.7,1.6,7.54h-9.39c1.28-2,1.59-3.06,1.59-6.13V20.13a14.94,14.94,0,0,0-1-5.59h7.55"/><path class="cls-1" d="M473.7,5.59a4.5,4.5,0,0,1-4.36,4.6A4.4,4.4,0,0,1,465,5.46a4.33,4.33,0,0,1,4.24-4.6,4.71,4.71,0,0,1,4.48,4.73Zm.12,8.89c-.8,1.54-1.53,2.89-1.53,8V37.81c0,5.83,1,7.48,1.84,8.89h-9.88c1.41-2.14,1.9-2.94,1.9-9.26V22.59c0-4.12-.43-5.59-1.66-8.11h9.33"/><path class="cls-1" d="M497.33,22c-1.42-1.47-3.13-3.25-6.88-3.25-7.12,0-9.14,6.44-9.14,11.17,0,9.39,6,12,10.12,12a23,23,0,0,0,6.88-1.23L495,45.78a16.57,16.57,0,0,1-5.21.8c-8.53,0-14.92-6.38-14.92-15.1,0-4.41,2.09-16.87,16.82-16.87a30.17,30.17,0,0,1,6.2.61L497.33,22"/><path class="cls-1" d="M516.78,32.65h-8.22a11.48,11.48,0,0,0-1.17,4.85c0,3.56,2.88,4.72,6.07,4.72a10,10,0,0,0,3.32-.55v-9ZM505.67,15.77l4.05-.86a14.3,14.3,0,0,1,2.82-.24c6,0,8.47,3.37,9.15,4.54.92,1.66.92,2.52.92,4.66l.24,18.35A23.09,23.09,0,0,0,524,46.7h-7.24V42.22c-2.33,1.72-3,2.28-5.28,4.18a16.64,16.64,0,0,1-2.58.3c-2.51,0-8.1-2.2-8.1-7.42,0-5.53,7.12-8.66,11.3-10.31a15.1,15.1,0,0,0,4.66-2.33V25a5.16,5.16,0,0,0-.37-2.58c-.86-1.59-3.44-3.07-6.38-3.07-2.4,0-4.11.92-6.08,2.09l1.72-5.65"/><path class="cls-1" d="M538.93,15.71a10.18,10.18,0,0,1,4.91-1.47,8.32,8.32,0,0,1,8.1,8.41V41.18a10.88,10.88,0,0,0,1.17,5.52h-8.22a12.31,12.31,0,0,0,1-5.34V23.63c0-1.11-1.11-4.17-5.83-4.17a8.58,8.58,0,0,0-5.71,1.84V39.59a35.22,35.22,0,0,0,.55,7.11h-8.16a24.27,24.27,0,0,0,1.6-9.82V19.64a49,49,0,0,0-.86-5.16h6.93l-.06,6.26,4.6-5"/><path class="cls-1" d="M139,59.76a9.11,9.11,0,0,0,1.66,2.66l5.24,6.52,5.73-7.08a10.68,10.68,0,0,0,1.38-2h3.76c-.8.94-1.54,1.81-1.54,4.6v9.43a11.88,11.88,0,0,0,.87,5.07h-4.6a11.21,11.21,0,0,0,.84-4.76v-9.1l-6.44,8-6.49-8v9.59a11.47,11.47,0,0,0,.81,4.27h-4.55a11.61,11.61,0,0,0,.87-5.12v-12l-1.89-2.1H139"/><path class="cls-1" d="M177.12,77c4.27,0,6.27-4,6.27-7,0-4-3-8.34-7.52-8.34-3.86,0-6.34,3.35-6.34,7.06A7.91,7.91,0,0,0,177.12,77Zm-.3-17.38c6.34,0,9.53,4.8,9.53,9.66,0,6-4.6,9.8-10,9.8a9.91,9.91,0,0,1-10-9.93c0-4.27,3.83-9.53,10.51-9.53"/><path class="cls-1" d="M200.26,69.78c1.82-.51,4.74-1.33,4.74-4.27,0-1.43-.9-3.73-4.74-4.11v8.38Zm-2.83-6a11.81,11.81,0,0,0-.52-4l3.74-.05c4.93-.08,7.26,2.89,7.26,5.47,0,3.12-2.76,4.65-3.63,5.12a61.5,61.5,0,0,0,6.34,8.59H208c-2.59-2.23-3.76-3.61-7.73-8.88v4.73a13.38,13.38,0,0,0,.54,4.15h-3.89a21.69,21.69,0,0,0,.52-5V63.77"/><path class="cls-1" d="M234.89,59.78l-1.33,2.95a10.34,10.34,0,0,0-5-1V74.36a17.28,17.28,0,0,0,.53,4.58h-3.91a19.89,19.89,0,0,0,.54-4.89V61.7c-1.28,0-2.41,0-6.11,1.31l1-3.23h14.27"/><path class="cls-1" d="M260.87,63.39a12.84,12.84,0,0,0-6.09-1.74c-3.24,0-6.9,2.38-6.9,7.52,0,4.19,2.84,7.57,7.77,7.57a7.56,7.56,0,0,0,3.38-.67V74c0-3-.57-3.73-1.28-4.7h4.68a8.5,8.5,0,0,0-.54,3.32v2.28a8.44,8.44,0,0,0,.36,3,16.43,16.43,0,0,1-6.73,1.26c-8.61,0-10.58-5.68-10.58-9.31a10.69,10.69,0,0,1,2.4-6.8c2-2.46,4.48-3.41,8.54-3.41a19.44,19.44,0,0,1,5,.64v3.2"/><path class="cls-1" d="M279.61,70.73h4.66L282,65.59l-2.43,5.14Zm9.13,3a26.14,26.14,0,0,0,3,5.19l-4.55,0a7.71,7.71,0,0,0-.79-3.38L285.26,73h-6.72l-1,2.07a8.65,8.65,0,0,0-1,3.89h-4.67a19.14,19.14,0,0,0,2.78-4.58l7.39-14.68h.16l6.49,14"/><path class="cls-1" d="M317.18,63.39a12.84,12.84,0,0,0-6.09-1.74c-3.25,0-6.9,2.38-6.9,7.52,0,4.19,2.84,7.57,7.77,7.57a7.56,7.56,0,0,0,3.38-.67V74c0-3-.57-3.73-1.28-4.7h4.68a8.5,8.5,0,0,0-.54,3.32v2.28a8.44,8.44,0,0,0,.36,3,16.47,16.47,0,0,1-6.73,1.26c-8.62,0-10.58-5.68-10.58-9.31a10.64,10.64,0,0,1,2.4-6.8c2.05-2.46,4.47-3.41,8.54-3.41a19.44,19.44,0,0,1,5,.64v3.2"/><path class="cls-1" d="M339.68,59.76l-1.46,3a10,10,0,0,0-5.29-1.16v6.7h6L337.3,71a16.65,16.65,0,0,0-4.37-.84v7a19.32,19.32,0,0,0,7.87-1.38l-1.4,3.2h-10a15.61,15.61,0,0,0,.71-4.94V64.62a16.64,16.64,0,0,0-.71-4.86h10.33"/><path class="cls-1" d="M390.13,63.39a10.14,10.14,0,0,0-5-1.38,7.11,7.11,0,0,0-7.27,7.44c0,3.91,2.56,7.29,7.06,7.29a8.65,8.65,0,0,0,5.65-2.07l-.15,3a12.09,12.09,0,0,1-6,1.46c-7.44,0-9.61-5.88-9.61-9.33,0-5.12,4.3-10.18,11.17-10.18a11.15,11.15,0,0,1,4.12.74v3.07"/><path class="cls-1" d="M410.69,77C415,77,417,73,417,70c0-4-3-8.34-7.52-8.34-3.86,0-6.34,3.35-6.34,7.06A7.9,7.9,0,0,0,410.69,77Zm-.31-17.38c6.34,0,9.54,4.8,9.54,9.66,0,6-4.6,9.8-10,9.8a9.92,9.92,0,0,1-10-9.93c0-4.27,3.84-9.53,10.51-9.53"/><path class="cls-1" d="M433.14,59.76a9.34,9.34,0,0,0,1.66,2.66l5.25,6.52,5.72-7.08a10.68,10.68,0,0,0,1.39-2h3.75c-.79.94-1.53,1.81-1.53,4.6v9.43a11.88,11.88,0,0,0,.87,5.07h-4.6a11.21,11.21,0,0,0,.84-4.76v-9.1l-6.44,8-6.5-8v9.59a11.34,11.34,0,0,0,.82,4.27h-4.55a11.61,11.61,0,0,0,.87-5.12v-12l-1.9-2.1h4.35"/><path class="cls-1" d="M464.83,69.48c1.22-.21,4-.72,4-4.17a4.54,4.54,0,0,0-1.23-3.17,4,4,0,0,0-2.68-1.1c-.05.64-.1,1.51-.1,2.15v6.29ZM462,64.9c0-3.4-.43-4.43-.74-5.14h4.17c3.86,0,6.47,2.12,6.47,5.37,0,4.19-3.86,5.47-6.29,5.29l-.74,0v3.15a28.14,28.14,0,0,0,.74,5.42h-4.48a21.07,21.07,0,0,0,.87-6.27V64.9"/><path class="cls-1" d="M488.25,70.73h4.65l-2.22-5.14-2.43,5.14Zm9.13,3a25.63,25.63,0,0,0,3,5.19l-4.55,0a7.75,7.75,0,0,0-.8-3.38L493.9,73h-6.73l-1,2.07a8.79,8.79,0,0,0-1,3.89h-4.68a19,19,0,0,0,2.79-4.58l7.39-14.68h.15l6.5,14"/><path class="cls-1" d="M513.51,59.76a11,11,0,0,0,2,3.25l8.67,11V65.28a17,17,0,0,0-.54-5.52h3.68a14.92,14.92,0,0,0-.48,4.09V74.16a12.19,12.19,0,0,0,.64,4.78H524a9,9,0,0,0-1.64-2.76l-8.15-10.44v7.57a18.28,18.28,0,0,0,.76,5.63h-4.06a20.5,20.5,0,0,0,.64-5.07V62.34a13.14,13.14,0,0,0-2.58-2.58h4.57"/><path class="cls-1" d="M542.13,59.76A4.71,4.71,0,0,0,543,62.6l2.69,4.73,2.6-4.63a4.75,4.75,0,0,0,1-2.94l3.86,0a25.74,25.74,0,0,0-1.43,2.15L547.09,70v6.65a5.29,5.29,0,0,0,.51,2.28h-3.89a7.21,7.21,0,0,0,.51-3.28V70.24l-4.29-7.64a7,7,0,0,0-2.18-2.79l4.38-.05"/><path class="cls-2" d="M101.88,79l-15-23c.08-.15.88-1.5,3.42-1.08,1.08.37.33-1.73,2.51-2.25,1.66-.19,4.07,1.68,4.78,1.52C98,52,93,50.1,95.58,46c0-.12.23-.61-.4-.56-6.33.5-7.52-3-7.57-3.54s1.11-5.55,7.12-2.61c1.42.56,1.74.82,2,0C96.52,38,95,36.2,96,33.85c1.47-3.39,4.87-2.85,5.66-5.07-.24-.47-1.33-.29-2.13-1.83-.91-2.06,1.67-2,1.91-4.06-4.12.24-3.73-3.25-4.25-3.15C95.79,20,95.38,22,93,22.46c-2.38.22-1.77-1.32-4.26-2.07-.55.79-.24,4.77-4.13,5.66-3.47-1.24-1.3-4.59-1.89-5.22-.16-.14-1.58,1.23-2.86,1.05-2.29-.69-1.55-5.89-2.11-6-1.45,0-1.47,4.55-4.25,6.05-.9.07-2-1.44-2.76-.61a15.49,15.49,0,0,1-1.49,7.58l4.57,7c1.24-3.21,2.43-6.67,3.08-8.54.65,1.49-.73,7-1.74,10.61l1.29,2c2.78-1.61,8.08-5.21,15.39-12.46-2.08,4.45-9.55,10.6-14.4,14l2.6,4a32.71,32.71,0,0,1,9.65,5c-3.11-1.15-5.79-2-8.09-2.63l5.23,8,0,.09s-8.37-4.4-13.18.53C68,66.38,75.31,71.64,75.31,71.64c0,.84-4.11-1.16-6,3.3-5.55-4.86-8.88.4-9.36-1.33,1.16-4.21-5.67-15.72-12.55-11.16-8.68,1.91-3.4,8.08-2.06,8.48-3.43,2.17-3.2,3.45-3.47,4.2a5,5,0,0,0-3.83.74c-.16-1.26-3.47-7.41-10.23-4.93.39-4.54,2.48-8.71-2.65-15.24,0,0,5.46-.08,6.52.26,6.86,5.23,6.62,13.8,7.42,13.47,1.76-6.12-4.82-13.38-4.5-14.05,4.53-1.22,5.28.79,17.94-2.53,12.46,5.88,13.47,18,15.2,16.83C66.62,59.84,57.48,52.8,56.48,51.85c9-3.52,11.56-5.2,12.56-5.36s4.48-.81,12.59,1.39l-1.56-2.39c-4.62-1.5-7.6-1.29-6.72-1.55a20.81,20.81,0,0,0,4.12-2.45l-1-1.52a17.74,17.74,0,0,1-2.22,1.15s.42-1.31.93-3.12l-1.34-2.07c-1.32,3.4-2.68,6.52-3.49,7.14-2.49,2.24-15,7.18-16.66,6.68.49-2.08,4.57-16.77.16-23.14C52.62,26.05,56.6,39,50.61,50.46,48.45,51.93,35,53.57,35,52.27c5.32-9.76,2.32-16.36,1.58-16.32-.91.59,0,2-.2,6S33.2,52.33,31.53,52.86c-5.56.43-6-.38-6-.38a28.89,28.89,0,0,0,3.36-14.92s5.12,4.66,5.59-8.27c.07-1.89,1.31,2.57,3.48,3.15a7.9,7.9,0,0,0,3.57-.39s-2.49,7.31,3,6.94c4.59-1.62,1.08-12.64.87-13.47.9-.48,3.83.38,3.83.38s1.34-1.41,1.13-7.12c1.06.65,1.45,1.89,3.07,1.95,2-.15,3-1.64,4-1.32.11,1,1,12.87,6.27,13.52,2.73-.07,4.47-1.84,5.54-4L50.94.78,17.77,51.69C9.18,50.37,6.63,48,5,46.2,4.34,45.84,4.24,46,3.9,46a17.85,17.85,0,0,0-2.8,4.44c-.13.75.57,1,4,.84,2.09-.07,6.11,1.91,10.84,3.26L0,79H101.88"/><path class="cls-1" d="M81.63,47.88c2.3.63,5,1.48,8.09,2.63a32.71,32.71,0,0,0-9.65-5l1.56,2.39"/><path class="cls-1" d="M77.47,41.49c4.85-3.38,12.32-9.53,14.4-14C84.56,34.76,79.26,38.36,76.48,40l1,1.52"/><path class="cls-1" d="M75.19,38c1-3.57,2.39-9.12,1.74-10.61-.65,1.87-1.84,5.33-3.08,8.54"/><path class="cls-1" d="M80.07,45.49c-4.62-1.5-7.6-1.29-6.72-1.55a20.81,20.81,0,0,0,4.12-2.45"/><path class="cls-1" d="M75.19,38c-.51,1.81-.93,3.12-.93,3.12A17.74,17.74,0,0,0,76.48,40"/><path class="cls-1" d="M86.9,56l-5.27-8.12c-8.11-2.2-11.48-1.56-12.59-1.39s-3.57,1.84-12.56,5.36c1,.95,10.14,8,11.31,17.83-1.73,1.17-2.74-11-15.2-16.83-12.66,3.32-13.41,1.31-17.94,2.53-.32.67,6.26,7.93,4.5,14.05-.8.33-.56-8.24-7.42-13.47-1.06-.34-6.52-.26-6.52-.26,5.13,6.53,3,10.7,2.65,15.24,6.76-2.48,10.07,3.67,10.23,4.93a5,5,0,0,1,3.83-.74c.27-.75,0-2,3.47-4.2-1.34-.4-6.62-6.57,2.06-8.48,6.88-4.56,13.71,7,12.55,11.16.48,1.73,3.81-3.53,9.36,1.33,1.84-4.46,6-2.46,6-3.3,0,0-7.31-5.26-1.59-15.11C78.53,51.6,86.9,56,86.9,56"/><path class="cls-1" d="M25.57,52.48a28.89,28.89,0,0,0,3.36-14.92s5.12,4.66,5.59-8.27c.07-1.89,1.31,2.57,3.48,3.15a7.9,7.9,0,0,0,3.57-.39s-2.49,7.31,3,6.94c4.59-1.62,1.08-12.64.87-13.47.9-.48,3.83.38,3.83.38s1.34-1.41,1.13-7.12c1.06.65,1.45,1.89,3.07,1.95,2-.15,3-1.64,4-1.32.11,1,1,12.87,6.27,13.52,2.73-.07,4.47-1.84,5.54-4l4.57,7c-1.32,3.4-2.68,6.52-3.49,7.14-2.49,2.24-15,7.18-16.66,6.68.49-2.08,4.57-16.77.16-23.14C52.62,26.05,56.6,39,50.61,50.46,48.45,51.93,35,53.57,35,52.27c5.32-9.76,2.32-16.36,1.58-16.32-.91.59,0,2-.2,6S33.2,52.33,31.53,52.86c-5.56.43-6-.38-6-.38"/><line class="cls-2" x1="15.9" y1="54.56" x2="17.77" y2="51.69"/><path class="cls-1" d="M24.56,54c.87-1.94-2.66-.84-3.21-1.24-1.6-.42-3.08-.57-3.24.84-.67,1.76,1.91,1.21,3,1.58,1.29.05,3,.13,3.46-1.18"/></g></g></svg>
